<svg width="256" height="256" viewBox="0 0 256 256" fill="none" xmlns="http://www.w3.org/2000/svg">
    <path d="M103.52 57.1667L103 90.5H48.833C48.833 90.5 48.833 79.8042 48.833 71.75C48.833 63.6958 55.3622 57.1667 63.4163 57.1667C71.4705 57.1667 103.52 57.1667 103.52 57.1667Z"
          fill="url(#paint0_linear_206_176)"/>
    <path d="M153.038 51.4458L160.746 38.4583C161.921 36.4792 161.267 33.9208 159.292 32.7458C157.313 31.5667 154.758 32.225 153.579 34.2L145.475 47.85C140.038 45.8167 134.158 44.6667 128 44.6667C121.842 44.6667 115.963 45.8167 110.521 47.8542L102.417 34.2042C101.242 32.2292 98.6877 31.5708 96.7043 32.75C94.7252 33.925 94.0752 36.4833 95.2502 38.4625L102.958 51.45C89.2043 59.45 79.5918 73.7917 78.2085 90.5042H177.792C176.408 73.7875 166.796 59.4458 153.038 51.4458Z"
          fill="url(#paint1_linear_206_176)"/>
    <path d="M153.038 51.4458L160.746 38.4583C161.921 36.4792 161.267 33.9208 159.292 32.7458C157.313 31.5667 154.758 32.225 153.579 34.2L145.475 47.85C140.038 45.8167 134.158 44.6667 128 44.6667C121.842 44.6667 115.963 45.8167 110.521 47.8542L102.417 34.2042C101.242 32.2292 98.6877 31.5708 96.7043 32.75C94.7252 33.925 94.0752 36.4833 95.2502 38.4625L102.958 51.45C89.2043 59.45 79.5918 73.7917 78.2085 90.5042H177.792C176.408 73.7875 166.796 59.4458 153.038 51.4458Z"
          fill="url(#paint2_linear_206_176)"/>
    <path opacity="0.05"
          d="M107.166 78C102.571 78 98.833 74.2625 98.833 69.6667C98.833 65.0708 102.571 61.3333 107.166 61.3333C111.762 61.3333 115.5 65.0708 115.5 69.6667C115.5 74.2625 111.762 78 107.166 78Z"
          fill="black"/>
    <path opacity="0.05"
          d="M107.167 75.9167C103.721 75.9167 100.917 73.1125 100.917 69.6667C100.917 66.2208 103.721 63.4167 107.167 63.4167C110.613 63.4167 113.417 66.2208 113.417 69.6667C113.417 73.1125 110.613 75.9167 107.167 75.9167Z"
          fill="black"/>
    <path d="M107.167 73.8333C109.468 73.8333 111.333 71.9679 111.333 69.6667C111.333 67.3655 109.468 65.5 107.167 65.5C104.865 65.5 103 67.3655 103 69.6667C103 71.9679 104.865 73.8333 107.167 73.8333Z"
          fill="white"/>
    <path opacity="0.05"
          d="M148.833 78C144.237 78 140.5 74.2625 140.5 69.6667C140.5 65.0708 144.237 61.3333 148.833 61.3333C153.429 61.3333 157.167 65.0708 157.167 69.6667C157.167 74.2625 153.429 78 148.833 78Z"
          fill="black"/>
    <path opacity="0.05"
          d="M148.833 75.9167C145.387 75.9167 142.583 73.1125 142.583 69.6667C142.583 66.2208 145.387 63.4167 148.833 63.4167C152.279 63.4167 155.083 66.2208 155.083 69.6667C155.083 73.1125 152.279 75.9167 148.833 75.9167Z"
          fill="black"/>
    <path d="M148.834 73.8333C151.135 73.8333 153 71.9679 153 69.6667C153 67.3655 151.135 65.5 148.834 65.5C146.532 65.5 144.667 67.3655 144.667 69.6667C144.667 71.9679 146.532 73.8333 148.834 73.8333Z"
          fill="white"/>
    <path d="M192.583 86.3333C190.525 86.3333 66.9997 86.3333 63.4163 86.3333C55.3622 86.3333 48.833 79.8042 48.833 71.75C48.833 71.75 48.833 176.196 48.833 184.25C48.833 192.304 55.3622 198.833 63.4163 198.833C66.9997 198.833 207.166 198.833 207.166 198.833C207.166 198.833 207.166 108.971 207.166 100.917C207.166 92.8625 200.637 86.3333 192.583 86.3333Z"
          fill="url(#paint3_linear_206_176)"/>
    <path d="M192.583 115.5H188.416C187.266 115.5 186.333 116.433 186.333 117.583V221.75C186.333 222.9 187.266 223.833 188.416 223.833H192.583C200.637 223.833 207.166 217.304 207.166 209.25V100.917C207.166 108.971 200.637 115.5 192.583 115.5Z"
          fill="url(#paint4_linear_206_176)"/>
    <path opacity="0.05"
          d="M90.9966 198.833H114.022L123.438 178.825C124.292 177.012 125.997 175.929 128.001 175.929C130.005 175.929 131.709 177.012 132.563 178.825L141.976 198.833H165.005L140.272 146.283C144.359 142.729 146.751 137.571 146.751 132.167C146.751 124.212 141.688 117.183 134.251 114.554V107.167C134.251 103.721 131.447 100.917 128.001 100.917C124.555 100.917 121.751 103.721 121.751 107.167V114.554C114.313 117.183 109.251 124.212 109.251 132.167C109.251 137.571 111.642 142.729 115.73 146.283L90.9966 198.833ZM128.001 125.917C131.447 125.917 134.251 128.721 134.251 132.167C134.251 135.612 131.447 138.417 128.001 138.417C124.555 138.417 121.751 135.612 121.751 132.167C121.751 128.721 124.555 125.917 128.001 125.917Z"
          fill="black"/>
    <path opacity="0.05"
          d="M88.6963 198.833H116.325L125.325 179.713C126.046 178.179 127.438 178.013 128.005 178.013C128.571 178.013 129.959 178.179 130.684 179.713L139.675 198.833H167.305L142.8 146.763C146.625 142.888 148.834 137.642 148.834 132.167C148.834 123.829 143.83 116.408 136.334 113.138V107.167C136.334 102.571 132.596 98.8333 128 98.8333C123.405 98.8333 119.667 102.571 119.667 107.167V113.138C112.171 116.408 107.167 123.825 107.167 132.167C107.167 137.642 109.375 142.888 113.2 146.763L88.6963 198.833ZM128 128C130.296 128 132.167 129.871 132.167 132.167C132.167 134.463 130.296 136.333 128 136.333C125.705 136.333 123.834 134.463 123.834 132.167C123.834 129.871 125.705 128 128 128Z"
          fill="black"/>
    <path d="M168.7 211.587L137.684 145.675C141.896 142.646 144.667 137.737 144.667 132.167C144.667 124.425 139.334 117.954 132.167 116.092V107.167C132.167 104.867 130.3 103 128 103C125.7 103 123.834 104.867 123.834 107.167V116.092C116.667 117.954 111.334 124.425 111.334 132.167C111.334 137.737 114.105 142.646 118.317 145.675L87.317 211.554C85.5504 215.308 86.4795 219.992 89.9004 222.337C94.2629 225.329 100.055 223.625 102.209 219.046L121.555 177.937C124.121 172.483 131.884 172.483 134.45 177.937L153.796 219.046C155.213 222.067 158.209 223.833 161.338 223.833C163.05 223.833 164.805 223.3 166.35 222.158C169.592 219.767 170.417 215.233 168.7 211.587ZM128 123.833C132.596 123.833 136.334 127.571 136.334 132.167C136.334 136.762 132.596 140.5 128 140.5C123.405 140.5 119.667 136.762 119.667 132.167C119.667 127.571 123.405 123.833 128 123.833Z"
          fill="url(#paint5_linear_206_176)"/>
    <defs>
        <linearGradient id="paint0_linear_206_176" x1="48.833" y1="73.8333" x2="103.521" y2="73.8333"
                        gradientUnits="userSpaceOnUse">
            <stop offset="0.143" stop-color="#073042"/>
            <stop offset="1" stop-color="#073042"/>
        </linearGradient>
        <linearGradient id="paint1_linear_206_176" x1="117.238" y1="28.8542" x2="129.604" y2="98.9958"
                        gradientUnits="userSpaceOnUse">
            <stop stop-color="#3DDC84"/>
            <stop offset="0.794" stop-color="#37C777"/>
        </linearGradient>
        <linearGradient id="paint2_linear_206_176" x1="128" y1="32.1667" x2="128" y2="90.5"
                        gradientUnits="userSpaceOnUse">
            <stop offset="0.772" stop-opacity="0"/>
            <stop offset="0.94" stop-opacity="0.15"/>
        </linearGradient>
        <linearGradient id="paint3_linear_206_176" x1="113.5" y1="60.3458" x2="140.004" y2="210.675"
                        gradientUnits="userSpaceOnUse">
            <stop offset="0.155" stop-color="#4F8FFF"/>
            <stop offset="0.925" stop-color="#3F73CC"/>
        </linearGradient>
        <linearGradient id="paint4_linear_206_176" x1="186.716" y1="104.521" x2="207.337" y2="221.458"
                        gradientUnits="userSpaceOnUse">
            <stop offset="0.143" stop-color="#073042"/>
            <stop offset="1" stop-color="#073042"/>
        </linearGradient>
        <linearGradient id="paint5_linear_206_176" x1="108.759" y1="106.329" x2="130.463" y2="229.408"
                        gradientUnits="userSpaceOnUse">
            <stop stop-color="#073042"/>
            <stop offset="0.857" stop-color="#073042"/>
        </linearGradient>
    </defs>
</svg>
