<svg width="256" height="256" viewBox="0 0 256 256" fill="none" xmlns="http://www.w3.org/2000/svg">
<path d="M128 88.352C77.708 88.352 36.432 126.864 32 176H224C219.568 126.864 178.292 88.352 128 88.352ZM164.716 140.316C164.716 135.9 168.296 132.32 172.712 132.32C177.128 132.32 180.708 135.9 180.708 140.316C180.708 144.732 177.128 148.312 172.712 148.312C168.296 148.312 164.716 144.732 164.716 140.316ZM83.288 148.312C78.872 148.312 75.292 144.732 75.292 140.316C75.292 135.9 78.872 132.32 83.288 132.32C87.704 132.32 91.284 135.9 91.284 140.316C91.284 144.732 87.704 148.312 83.288 148.312Z" fill="#30DC80"/>
<path d="M168.151 109.252C167.591 109.252 167.027 109.112 166.511 108.812C164.939 107.904 164.403 105.896 165.307 104.324L186.095 68.292C187.003 66.716 189.011 66.176 190.583 67.088C192.155 67.996 192.691 70.004 191.787 71.576L170.999 107.608C170.391 108.664 169.287 109.252 168.151 109.252Z" fill="#30DC80"/>
<path d="M87.8483 109.252C86.7123 109.252 85.6083 108.66 85.0003 107.608L64.2163 71.576C63.3083 70.004 63.8483 67.996 65.4163 67.088C66.9843 66.176 68.9963 66.716 69.9043 68.292L90.6923 104.324C91.6003 105.9 91.0603 107.908 89.4883 108.812C88.9723 109.112 88.4083 109.252 87.8483 109.252Z" fill="#30DC80"/>
</svg>
