<svg width="256" height="256" viewBox="0 0 256 256" fill="none" xmlns="http://www.w3.org/2000/svg">
<path fill-rule="evenodd" clip-rule="evenodd" d="M224.25 59.25C224.25 44.0562 211.944 31.75 196.75 31.75H59.25C44.0562 31.75 31.75 44.0562 31.75 59.25V196.75C31.75 211.944 44.0562 224.25 59.25 224.25H196.75C211.944 224.25 224.25 211.944 224.25 196.75V59.25Z" fill="#161616"/>
<path fill-rule="evenodd" clip-rule="evenodd" d="M152.097 103.972C165.4 103.972 176.194 114.766 176.194 128.069C176.194 141.372 165.4 152.166 152.097 152.166C138.794 152.166 128 141.372 128 128.069C128 114.766 138.794 103.972 152.097 103.972Z" fill="#0CC2FF"/>
<path fill-rule="evenodd" clip-rule="evenodd" d="M176.126 79.875C176.126 66.5719 165.367 55.8125 152.064 55.8125H103.87C90.567 55.8125 79.8076 66.5719 79.8076 79.875C79.8076 93.1781 90.567 103.938 103.87 103.938H152.064C165.367 103.938 176.126 93.1781 176.126 79.875Z" fill="#FF7568"/>
<path fill-rule="evenodd" clip-rule="evenodd" d="M127.967 103.972H103.87C97.4764 103.972 91.3576 106.516 86.8545 111.019C82.3514 115.522 79.8076 121.641 79.8076 128.034C79.8076 134.428 82.3514 140.547 86.8545 145.05C91.3576 149.553 97.4764 152.097 103.87 152.097H127.967V103.972Z" fill="#AF5BFF"/>
<path fill-rule="evenodd" clip-rule="evenodd" d="M127.967 55.8125H103.87C97.4764 55.8125 91.3576 58.3563 86.8545 62.8594C82.3514 67.3625 79.8076 73.4812 79.8076 79.875C79.8076 86.2688 82.3514 92.3875 86.8545 96.8906C91.3576 101.394 97.4764 103.938 103.87 103.938H127.967V55.8125Z" fill="#FF4611"/>
<path fill-rule="evenodd" clip-rule="evenodd" d="M128.001 152.028H103.904C97.5105 152.028 91.3918 154.572 86.8887 159.075C82.3856 163.578 79.8418 169.697 79.8418 176.091C79.8418 182.484 82.3856 188.603 86.8887 193.106C91.3918 197.609 97.5105 200.153 103.904 200.153C110.298 200.153 116.417 197.609 120.92 193.106C125.423 188.603 127.967 182.484 127.967 176.091V152.028H128.001Z" fill="#00E681"/>
</svg>
