<svg width="256" height="256" viewBox="0 0 256 256" fill="none" xmlns="http://www.w3.org/2000/svg">
    <path d="M225.066 117.867L138.133 30.9333C135.466 28.2667 131.733 26.6667 128 26.6667C124.266 26.6667 120.533 28.2667 117.867 30.9333L99.1998 49.6L121.067 71.4667C123.2 70.4 125.333 69.8667 128 69.8667C137.066 69.8667 144 76.8 144 85.8667C144 88.5333 143.467 90.6667 142.4 92.8L163.733 114.133C165.866 113.067 168 112.533 170.666 112.533C179.733 112.533 186.666 119.467 186.666 128.533C186.666 137.6 179.733 144.533 170.666 144.533C161.6 144.533 154.666 137.6 154.666 128.533C154.666 125.867 155.2 123.733 156.266 121.6L134.933 100.267C134.4 100.267 133.866 100.8 133.333 100.8V156.267C139.733 158.4 144 164.267 144 171.2C144 180.267 137.066 187.2 128 187.2C118.933 187.2 112 180.267 112 171.2C112 164.267 116.266 158.4 122.666 156.267V100.267C116.266 98.1333 112 92.2667 112 85.3333C112 82.6667 112.533 80.5333 113.6 78.4L91.7332 56.5333L30.9332 117.867C28.2665 120.533 26.6665 124.267 26.6665 128C26.6665 131.733 28.2665 135.467 30.9332 138.133L117.867 225.067C120.533 227.733 124.266 229.333 128 229.333C131.733 229.333 135.466 227.733 138.133 225.067L225.066 138.133C227.733 135.467 229.333 131.733 229.333 128C229.333 124.267 227.733 120.533 225.066 117.867Z"
          fill="#F4511E"/>
</svg>
