<svg width="256" height="256" viewBox="0 0 256 256" fill="none" xmlns="http://www.w3.org/2000/svg">
    <path d="M128 25.6C71.4497 25.6 25.6001 71.4496 25.6001 128C25.6001 175.983 58.6412 216.132 103.185 227.243C102.707 225.86 102.4 224.256 102.4 222.268V204.766C98.2444 204.766 91.2812 204.766 89.5318 204.766C82.526 204.766 76.2966 201.754 73.2758 196.156C69.9222 189.935 69.342 180.42 61.0305 174.601C58.5644 172.663 60.4417 170.453 63.2833 170.752C68.5313 172.237 72.8833 175.838 76.9793 181.18C81.0582 186.53 82.9782 187.742 90.5985 187.742C94.2934 187.742 99.823 187.529 105.028 186.709C107.827 179.601 112.666 173.056 118.579 169.967C84.4801 166.46 68.207 149.495 68.207 126.464C68.207 116.548 72.431 106.957 79.6076 98.8757C77.2524 90.8544 74.2913 74.496 80.5121 68.2667C95.855 68.2667 105.131 78.2165 107.358 80.9045C115.004 78.2848 123.401 76.8 132.224 76.8C141.065 76.8 149.496 78.2848 157.159 80.9216C159.36 78.2507 168.644 68.2667 184.021 68.2667C190.268 74.5045 187.273 90.9312 184.892 98.9355C192.026 106.999 196.224 116.565 196.224 126.464C196.224 149.478 179.977 166.434 145.929 169.958C155.298 174.848 162.133 188.587 162.133 198.938V222.268C162.133 223.155 161.937 223.795 161.835 224.555C201.737 210.569 230.4 172.681 230.4 128C230.4 71.4496 184.551 25.6 128 25.6Z"
          fill="black"/>
</svg>
