<svg width="256" height="256" viewBox="0 0 256 256" fill="none" xmlns="http://www.w3.org/2000/svg">
<path d="M126.133 132.789C120.811 124.208 116.949 117.093 111.6 103.696C102.555 81.0667 166.613 60.6187 140.64 21.328C151.899 48.4693 100.229 65.248 95.4295 87.8507C91.0402 108.64 126.107 132.789 126.133 132.789Z" fill="#F44336"/>
<path d="M127.348 92.1067C126.324 105.525 139.236 112.677 139.61 122.48C139.908 130.459 131.892 137.109 131.892 137.109C131.892 137.109 146.442 134.251 150.98 122.08C156.02 108.565 141.199 99.312 142.724 88.4907C144.148 78.1547 174.89 58.928 174.89 58.928C174.89 58.928 129.658 61.9254 127.348 92.1067Z" fill="#F44336"/>
<path d="M171.113 133.627C180.468 131.525 188.356 137.483 188.356 144.347C188.356 159.819 166.911 174.443 166.911 174.443C166.911 174.443 200.111 170.485 200.111 145.083C200.111 128.283 183.807 124.085 171.113 133.627ZM155.353 146.107C155.353 146.107 165.705 138.731 168.463 135.963C143.06 141.355 85.0601 142.08 85.0601 137.397C85.0601 133.083 103.764 128.661 103.764 128.661C103.764 128.661 62.3081 128.064 62.3081 140.293C62.3081 153.04 116.575 153.952 155.353 146.107Z" fill="#1565C0"/>
<path d="M148.986 157.712C124.938 165.707 80.6451 163.152 93.7651 152.416C87.3758 152.416 77.9038 157.552 77.9038 162.491C77.9038 172.395 125.808 180.043 161.264 165.541L148.986 157.712Z" fill="#1565C0"/>
<path d="M99.6585 174.608C90.9332 174.608 85.2852 180.229 85.2852 184.325C85.2852 197.077 137.338 198.363 157.962 185.419L144.853 176.715C129.445 183.488 90.7412 184.421 99.6585 174.608Z" fill="#1565C0"/>
<path d="M193.499 195.371C193.499 190.379 187.872 188.027 185.856 186.901C197.739 215.557 66.832 213.333 66.832 196.416C66.832 192.571 76.4693 188.805 85.376 190.587L77.8027 186.112C60.0533 183.328 48 191.131 48 197.424C48 226.773 193.499 225.36 193.499 195.371Z" fill="#1565C0"/>
<path d="M208 205.888C185.888 227.728 129.819 235.685 73.4346 222.192C129.819 246.208 207.733 232.683 208 205.888Z" fill="#1565C0"/>
</svg>
