<svg width="256" height="256" viewBox="0 0 256 256" fill="none" xmlns="http://www.w3.org/2000/svg">
<path d="M128 32L95.9467 65.8667L63.84 99.68L32 133.333V32H128Z" fill="#0D91D6"/>
<path d="M128 32H127.787L95.84 65.76L63.7867 99.6267L32 133.173V133.333V133.813V224L78.3467 177.653L111.307 144.693L144.32 111.68L177.333 78.6667L224 32H128Z" fill="#F88909"/>
<path d="M78.3467 177.653L32 224V133.813L78.3467 177.653Z" fill="#C757BC"/>
<path d="M111.307 144.693L78.3467 177.653L32 133.813V133.333L63.84 99.68L111.307 144.693Z" fill="#D3638F"/>
<path d="M144.32 111.68L111.307 144.693L63.8398 99.68L95.9465 65.8667L144.32 111.68Z" fill="#E07063"/>
<path d="M177.333 78.6667L144.32 111.68L95.9468 65.8667L128 32L177.333 78.6667Z" fill="#EC7D36"/>
<path d="M224 32L177.333 78.6667L128 32H224Z" fill="#F88909"/>
<path d="M61.3867 102.133L42.6133 122.027L32 112V74.3467L61.3867 102.133Z" fill="#0095D5"/>
<path d="M80.16 82.24L61.3867 102.133L32 74.3467V36.64L80.16 82.24Z" fill="#2B88DA"/>
<path d="M98.9867 62.4L80.16 82.24L32 36.64V32H66.8267L98.9867 62.4Z" fill="#557BDE"/>
<path d="M117.76 42.5067L98.9867 62.4L66.8267 32H128L117.76 42.5067Z" fill="#806EE3"/>
<path d="M122.667 133.333L32 224H49.8667H93.44H213.333L122.667 133.333Z" fill="#0095D5"/>
<path d="M136.96 224H93.4402L62.7202 193.333L84.4802 171.573L136.96 224Z" fill="#2B88DA"/>
<path d="M180.587 224H136.96L84.48 171.573L106.24 149.813L180.587 224Z" fill="#557BDE"/>
<path d="M224 224H180.587L106.24 149.813L128 128L224 224Z" fill="#806EE3"/>
</svg>
