<svg width="256" height="256" viewBox="0 0 256 256" fill="none" xmlns="http://www.w3.org/2000/svg">
<path d="M118.25 74.5833C118.916 74.3333 119.833 74.25 120.416 74.5833C120.583 74.6667 120.75 74.8333 120.666 75V75.1667H120.75C120.583 75.6667 119.75 75.5833 119.333 75.75C118.916 75.9167 118.583 76.3333 118.166 76.3333C117.75 76.3333 117.083 76.1667 117 75.75C116.916 75.1667 117.75 74.5833 118.25 74.5833ZM126.75 75.75C126.333 75.5833 125.5 75.6667 125.416 75.1667V75C125.333 74.8333 125.5 74.6667 125.583 74.5833C126.304 74.2914 127.111 74.2914 127.833 74.5833C128.333 74.5833 129.166 75.1667 129.083 75.75C129 76.1667 128.333 76.25 127.916 76.25C127.5 76.25 127.166 75.9167 126.75 75.75ZM112.083 87.8333C114.583 89.5 117.833 91.75 121.916 91.75C126 91.75 130.833 89.5 133.75 87.8333C135.333 86.75 137.5 85.0833 139.166 83.9167C140.5 82.8333 140.416 81.75 141.583 81.75C142.666 81.8333 141.833 82.8333 140.333 84.5C138.75 85.5833 136.416 87.25 134.5 88.4167C130.833 90.0833 126.5 92.8333 121.916 92.8333C117.416 92.8333 113.75 90.5833 111.166 88.9167C109.833 87.8333 108.833 86.75 108 86.1667C106.666 85.0833 106.833 83.4167 107.416 83.4167C108.333 83.5 108.5 84.5 109.083 85.0833C109.916 85.5833 110.916 86.75 112.083 87.8333Z" fill="#F9C105"/>
<path d="M129.083 75.75C129 76.1667 128.333 76.25 127.916 76.25C127.5 76.25 127.166 75.9167 126.75 75.75C126.333 75.5833 125.5 75.6667 125.416 75.1667V75C125.333 74.8333 125.5 74.6667 125.583 74.5833C126.305 74.2914 127.111 74.2914 127.833 74.5833C128.333 74.5833 129.166 75.1667 129.083 75.75Z" fill="black"/>
<path d="M166.583 119.5V127.167H162C166.161 134.753 169.14 142.931 170.833 151.417C172.083 151.333 173.583 151.583 175.166 151.917C175.833 150.167 176.25 148.417 176.5 146.667C178.083 135.083 170.75 123.75 166.583 119.5ZM166.583 119.5V127.167H162C166.161 134.753 169.14 142.931 170.833 151.417C172.083 151.333 173.583 151.583 175.166 151.917C175.833 150.167 176.25 148.417 176.5 146.667C178.083 135.083 170.75 123.75 166.583 119.5ZM205.333 185.917V185.167L205.25 185.083C203.833 183.417 203.166 180.667 202.416 177.417C201.75 174.083 200.916 170.833 198.25 168.667C197.75 168.25 197.25 168.167 196.666 167.583C196.191 167.268 195.649 167.068 195.083 167C197.416 160.167 197.666 153.25 196.5 146.667C195.916 143.083 194.916 139.583 193.583 136.25C189.083 124.5 181.25 114.25 175.25 107.25C172.166 103.333 169 99.4167 166.583 95.25C163.833 90.5 162 85.4167 162.083 79.1667C162.25 67.5833 163 49.5 154.833 38.25C150.5 32.1667 143.416 28 132.25 28C130.916 28 129.583 28.0833 128.166 28.1667C117.583 29 111 32.8333 106.916 38.25C97.3331 50.9167 101.833 71.9167 101.5 80.6667C100.833 89.75 98.9998 96.9167 92.6664 105.833C90.0831 108.833 87.0831 112.5 84.1664 116.667C78.5831 124.5 72.9998 133.833 69.7498 143.5C67.6664 149.75 66.4998 156.167 67.0831 162.333L67.3331 164.25C66.9998 164.5 66.6664 164.833 66.4164 165.333C64.1664 167.583 62.5831 170.333 60.8331 172.333C59.0831 174 56.7498 174.583 54.0831 175.667C51.4164 176.833 48.4998 177.917 46.8331 181.333C45.9998 182.917 45.6664 184.667 45.6664 186.333C45.6664 188 45.9164 189.75 46.1664 190.833C46.6664 194.167 47.1664 196.917 46.4998 198.917C44.4164 204.583 44.1664 208.5 45.5831 211.333C47.0831 214.083 50.0831 215.167 53.4998 216.333C60.3331 218 69.5831 217.417 76.9164 221.333C84.6664 225.167 92.6664 226.917 98.9164 225.25C103.416 224.25 107.166 221.333 109.166 217.333C109.583 217.333 109.916 217.333 110.333 217.25C115 217 120.166 215.083 128.166 214.583C130.416 214.417 132.833 214.667 135.5 215C139.75 215.667 144.583 216.583 149.916 216.25C150.083 217.333 150.416 217.833 150.833 219H150.916C154.166 225.5 160.25 228.417 166.75 227.917C173.25 227.417 180.166 223.5 185.833 217.083C191.083 210.667 200 208 205.833 204.5C208.75 202.917 211.166 200.667 211.333 197.417C211.5 194.083 209.666 190.667 205.333 185.917ZM140.5 66.6667C140.166 65.5833 139.666 65 139 63.9167C138.25 63.3333 137.583 62.75 136.75 62.75H136.583C135.833 62.75 135.083 63 134.416 63.9167C133.583 64.6667 133 65.5833 132.666 66.6667C132.25 67.75 132 68.8333 131.916 70V70.1667C131.916 70.9167 132 71.6667 132.083 72.4167C130.416 71.8333 128.416 71.25 127 70.6667C126.916 70.1667 126.833 69.5833 126.833 69.0833V68.9167C126.75 66.6667 127.166 64.5 128.083 62.5C128.75 60.6667 130 59.0833 131.666 58C133.166 56.9167 134.916 56.3333 136.666 56.3333H136.833C138.583 56.3333 140.166 56.9167 141.75 58C143.333 59.1667 144.5 60.75 145.416 62.5C146.333 64.5833 146.75 66.25 146.833 68.5C146.833 68.3333 146.916 68.1667 146.916 68V68.8333C146.833 68.8333 146.833 68.75 146.833 68.6667C146.833 70.5833 146.333 72.5833 145.583 74.4167C145.166 75.4167 144.583 76.4167 143.75 77.1667C143.5 77 143.25 76.9167 143 76.8333C142.166 76.4167 141.333 76.25 140.583 75.75C140.003 75.4688 139.386 75.2723 138.75 75.1667C139.166 74.6667 140 74.0833 140.333 73.5C140.75 72.4167 141 71.3333 141.083 70.1667V70C141.083 68.9167 140.916 67.75 140.5 66.6667ZM105.833 63C106.25 61.3333 107.083 59.8333 108.25 58.5C109.333 57.4167 110.416 56.8333 111.75 56.8333H112C113.233 56.8511 114.43 57.2596 115.416 58C116.666 59.0833 117.666 60.4167 118.333 61.8333C119.083 63.5 119.5 65.1667 119.583 67.4167C119.666 68 119.666 68.4167 119.666 68.8333C119.666 69.1667 119.666 69.4167 119.583 69.6667V70.3333C119.369 70.4183 119.145 70.4744 118.916 70.5C117.583 71 116.583 71.6667 115.583 72.1667C115.666 71.5 115.666 70.75 115.583 70V69.8333C115.5 68.75 115.25 68.1667 114.916 67.0833C114.638 66.2273 114.152 65.454 113.5 64.8333C113.283 64.6484 113.031 64.5089 112.759 64.423C112.487 64.3371 112.2 64.3066 111.916 64.3333H111.75C111.166 64.3333 110.666 64.6667 110.25 65.4167C109.666 66.0833 109.333 66.8333 109.166 67.6667C109 68.5833 108.916 69.5 109 70.4167V70.5833C109.083 71.6667 109.333 72.25 109.666 73.3333C110.083 74.4167 110.5 75 111.083 75.5833C111.166 75.6667 111.25 75.75 111.333 75.75C110.75 76.25 110.416 76.3333 109.916 76.9167C109.574 77.1921 109.176 77.391 108.75 77.5C107.916 76.4167 107.166 75.3333 106.5 74.0833C105.666 72.3333 105.25 70.5 105.166 68.5833C105 66.6667 105.25 64.75 105.833 63ZM106.75 80.5833C108.583 79.4167 109.916 78.25 110.833 77.75C111.666 77.1667 112 76.9167 112.25 76.6667H112.333C113.75 74.9167 116 72.75 119.333 71.5833C120.5 71.3333 121.833 71.0833 123.333 71.0833C126.083 71.0833 129.5 71.5833 133.5 74.4167C136 76.0833 137.916 76.6667 142.416 78.3333C144.583 79.4167 145.833 80.5 146.5 81.6667V80.5C147.083 81.75 147.083 83.1667 146.583 84.4167C145.583 87.0833 142.25 89.8333 137.666 91.5C135.333 92.5833 133.416 94.25 131.083 95.3333C128.75 96.5 126.166 97.8333 122.583 97.5833C121.305 97.6892 120.019 97.4893 118.833 97C117.833 96.5 116.916 96 116.083 95.4167C114.416 94.25 113 92.5833 110.916 91.5C107.5 89.4167 105.666 87.1667 105.083 85.5833C104.5 83.3333 105.083 81.6667 106.75 80.5833ZM108.083 211.083C107.583 217.25 104 220.583 98.5831 221.833C93.0831 222.917 85.7498 221.833 78.3331 218C70.2498 213.5 60.4998 214.083 54.3331 212.917C51.1664 212.417 49.1664 211.25 48.1664 209.583C47.2498 207.917 47.2498 204.583 49.2498 199.333C50.2498 196.5 49.4998 193 48.9998 190C48.5831 186.667 48.3331 184.083 49.4164 182.167C50.7498 179.333 52.7498 178.833 55.1664 177.667C57.6664 176.583 60.5831 176 62.9164 173.833V173.75C65.0831 171.5 66.6664 168.75 68.5831 166.75C70.1664 165.083 71.7498 164 74.1664 164H74.2498C74.6664 164 75.0831 164 75.5831 164.083C78.7498 164.583 81.4998 166.917 84.1664 170.333L91.8331 184.25H91.9164C93.9164 188.667 98.2498 193.167 101.916 197.917C105.583 202.917 108.416 207.333 108.083 211V211.083ZM135.5 205.75C127.25 207.667 118.5 207.083 110.333 202.583C109.333 202.083 108.333 201.5 107.416 200.833C106.5 199.25 105.333 197.75 104 196.417C103.386 195.372 102.597 194.442 101.666 193.667C103.25 193.667 104.583 193.417 105.666 193.083C106.833 192.5 107.833 191.5 108.25 190.333C109.166 188.083 108.25 184.5 105.333 180.583C102.416 176.75 97.4998 172.333 90.3331 167.917C87.5831 166.167 85.4998 164.333 83.9164 162.333C82.3331 160.417 81.2498 158.417 80.5831 156.333C79.2498 151.833 79.4164 147.25 80.4998 142.583C81.7498 137.083 84.2498 131.75 86.6664 127.167C88.3331 124.25 89.9164 121.667 91.2498 119.583C92.0831 119 91.4998 120.583 87.9998 127.167L87.7498 127.667C84.4164 133.917 78.1664 148.5 86.7498 159.833C87.0831 151.583 88.9164 143.417 92.1664 135.833C93.2498 133.333 94.6664 130.417 96.1664 127.167C101.083 116.75 107.083 103.25 107.666 91.9167C108.083 92.25 109.5 93.0833 110.083 93.5833C111.916 94.75 113.333 96.4167 115.083 97.5C116.833 99.1667 119.083 100.25 122.5 100.25C122.833 100.333 123.083 100.333 123.416 100.333C126.833 100.333 129.583 99.25 131.833 98.0833C134.25 97 136.166 95.3333 138 94.75H138.083C142 93.6667 145.083 91.4167 146.916 88.9167C149.916 100.75 157 117.917 161.5 126.25C165.924 134.092 169.074 142.587 170.833 151.417C172.083 151.333 173.583 151.583 175.166 151.917C175.833 150.167 176.25 148.417 176.5 146.667C178.083 135.083 170.75 123.75 166.583 119.5C166.333 119.333 166.083 119.083 165.916 118.917C164.083 117.25 164 116.083 164.916 116.083C165.5 116.583 166 117.083 166.583 117.667C171.25 122.5 176.666 130.25 178.75 139.083C179.416 141.5 179.75 144.083 179.75 146.667C179.75 148.75 179.5 150.917 179 153C179.5 153.25 180.083 153.5 180.666 153.583C189.416 158 192.583 161.333 191.083 166.333V166H189.416C190.666 162.083 187.916 159.083 180.416 155.833C172.75 152.5 166.583 153 165.5 159.667C165.416 160 165.416 160.25 165.333 160.833C164.75 161 164.166 161.25 163.583 161.333C160 163.583 158 166.917 156.916 171.25C155.833 175.667 155.5 180.833 155.166 186.833C155 189.583 153.75 193.833 152.5 198.083C147.416 201.667 141.666 204.417 135.5 205.75ZM204.666 201.5C199.416 204.833 190 207.417 184 214.583C178.75 220.75 172.416 224.083 166.833 224.5C161.25 224.917 156.416 222.833 153.583 217H153.5C151.75 213.667 152.5 208.417 154 202.917C155.5 197.333 157.583 191.667 157.916 187.083C158.166 181.167 158.5 176 159.5 172C160.583 168.083 162.166 165.333 164.916 163.75L165.333 163.583C165.583 168.583 168.166 173.917 172.75 175.083C177.666 176.167 184.833 172.25 187.833 168.667L189.583 168.583C192.25 168.5 194.5 168.667 196.75 170.833C198.5 172.5 199.333 175.25 200.083 178.167C200.833 181.5 201.416 184.667 203.5 187C207.666 191.417 209 194.583 208.916 196.5C208.75 198.75 207.333 199.833 204.666 201.5ZM166.583 119.5V127.167H162C166.161 134.753 169.14 142.931 170.833 151.417C172.083 151.333 173.583 151.583 175.166 151.917C175.833 150.167 176.25 148.417 176.5 146.667C178.083 135.083 170.75 123.75 166.583 119.5Z" fill="black"/>
<path d="M146.5 80.5V81.6667C145.834 80.5 144.584 79.4167 142.417 78.3333C137.917 76.6667 136 76.0833 133.5 74.4167C129.5 71.5833 126.084 71.0833 123.334 71.0833C121.834 71.0833 120.5 71.3333 119.334 71.5833C116 72.75 113.75 74.9167 112.334 76.6667H112.25C112 76.9167 111.667 77.1667 110.834 77.75C109.917 78.25 108.584 79.4167 106.75 80.5833C105.084 81.6667 104.5 83.3333 105.084 85.5833C105.667 87.1667 107.5 89.4167 110.917 91.5C113 92.5833 114.417 94.25 116.084 95.4167C116.917 96 117.834 96.5 118.834 97C120 97.5 121.25 97.6667 122.584 97.5833C126.167 97.8333 128.75 96.5 131.084 95.3333C133.417 94.25 135.334 92.5833 137.667 91.5C142.25 89.8333 145.584 87.0833 146.584 84.4167C147.084 83.1667 147.084 81.75 146.5 80.5ZM125.417 75C125.334 74.8333 125.5 74.6667 125.584 74.5833C126.305 74.2914 127.112 74.2914 127.834 74.5833C128.334 74.5833 129.167 75.1667 129.084 75.75C129 76.1667 128.334 76.25 127.917 76.25C127.5 76.25 127.167 75.9167 126.75 75.75C126.334 75.5833 125.5 75.6667 125.417 75.1667V75ZM118.25 74.5833C118.917 74.3333 119.834 74.25 120.417 74.5833C120.584 74.6667 120.75 74.8333 120.667 75V75.1667H120.75C120.584 75.6667 119.75 75.5833 119.334 75.75C118.917 75.9167 118.584 76.3333 118.167 76.3333C117.75 76.3333 117.084 76.1667 117 75.75C116.917 75.1667 117.75 74.5833 118.25 74.5833ZM140.334 84.5C138.75 85.5833 136.417 87.25 134.5 88.4167C130.834 90.0833 126.5 92.8333 121.917 92.8333C117.417 92.8333 113.75 90.5833 111.167 88.9167C109.834 87.8333 108.834 86.75 108 86.1667C106.667 85.0833 106.834 83.4167 107.417 83.4167C108.334 83.5 108.5 84.5 109.084 85.0833C109.917 85.5833 110.917 86.75 112.084 87.8333C114.584 89.5 117.834 91.75 121.917 91.75C126 91.75 130.834 89.5 133.75 87.8333C135.334 86.75 137.5 85.0833 139.167 83.9167C140.5 82.8333 140.417 81.75 141.584 81.75C142.667 81.8333 141.834 82.8333 140.334 84.5ZM208.917 196.5C208.75 198.75 207.334 199.833 204.667 201.5C199.417 204.833 190 207.417 184 214.583C178.75 220.75 172.417 224.083 166.834 224.5C161.25 224.917 156.417 222.833 153.584 217H153.5C151.75 213.667 152.5 208.417 154 202.917C155.5 197.333 157.584 191.667 157.917 187.083C158.167 181.167 158.5 176 159.5 172C160.584 168.083 162.167 165.333 164.917 163.75L165.334 163.583C165.584 168.583 168.167 173.917 172.75 175.083C177.667 176.167 184.834 172.25 187.834 168.667L189.584 168.583C192.25 168.5 194.5 168.667 196.75 170.833C198.5 172.5 199.334 175.25 200.084 178.167C200.834 181.5 201.417 184.667 203.5 187C207.667 191.417 209 194.583 208.917 196.5ZM108.084 211V211.083C107.584 217.25 104 220.583 98.5836 221.833C93.0836 222.917 85.7502 221.833 78.3336 218C70.2502 213.5 60.5002 214.083 54.3336 212.917C51.1669 212.417 49.1669 211.25 48.1669 209.583C47.2502 207.917 47.2502 204.583 49.2502 199.333C50.2502 196.5 49.5002 193 49.0002 190C48.5836 186.667 48.3336 184.083 49.4169 182.167C50.7502 179.333 52.7502 178.833 55.1669 177.667C57.6669 176.583 60.5836 176 62.9169 173.833V173.75C65.0836 171.5 66.6669 168.75 68.5836 166.75C70.1669 165.083 71.7502 164 74.1669 164H74.2502C74.6669 164 75.0836 164 75.5836 164.083C78.7502 164.583 81.5002 166.917 84.1669 170.333L91.8336 184.25H91.9169C93.9169 188.667 98.2502 193.167 101.917 197.917C105.584 202.917 108.417 207.333 108.084 211Z" fill="#F9C105"/>
<path d="M120.75 75.1667C120.583 75.6667 119.75 75.5833 119.333 75.75C118.916 75.9167 118.583 76.3333 118.166 76.3333C117.75 76.3333 117.083 76.1667 117 75.75C116.916 75.1667 117.75 74.5833 118.25 74.5833C118.916 74.3333 119.833 74.25 120.416 74.5833C120.583 74.6667 120.75 74.8333 120.666 75V75.1667H120.75ZM140.333 84.5C138.75 85.5833 136.416 87.25 134.5 88.4167C130.833 90.0833 126.5 92.8333 121.916 92.8333C117.416 92.8333 113.75 90.5833 111.166 88.9167C109.833 87.8333 108.833 86.75 108 86.1667C106.666 85.0833 106.833 83.4167 107.416 83.4167C108.333 83.5 108.5 84.5 109.083 85.0833C109.916 85.5833 110.916 86.75 112.083 87.8333C114.583 89.5 117.833 91.75 121.916 91.75C126 91.75 130.833 89.5 133.75 87.8333C135.333 86.75 137.5 85.0833 139.166 83.9167C140.5 82.8333 140.416 81.75 141.583 81.75C142.666 81.8333 141.833 82.8333 140.333 84.5Z" fill="black"/>
</svg>
