<svg width="256" height="256" viewBox="0 0 256 256" fill="none" xmlns="http://www.w3.org/2000/svg">
<rect x="32" y="32" width="192" height="192" rx="45.3543" fill="#00DDB3"/>
<g clip-path="url(#clip0_206_192)">
<path d="M184.063 83.1496C165.45 83.1496 152.04 107.559 137.822 133.404C121.093 163.824 103.792 195.276 71.9372 195.276C68.9634 195.276 66.1115 194.094 64.0087 191.992C61.9059 189.889 60.7246 187.037 60.7246 184.063C60.7246 181.089 61.9059 178.237 64.0087 176.134C66.1115 174.032 68.9634 172.85 71.9372 172.85C90.5501 172.85 103.96 148.441 118.178 122.596C134.907 92.1758 152.208 60.7244 184.063 60.7244C187.037 60.7244 189.889 61.9057 191.992 64.0085C194.094 66.1113 195.276 68.9633 195.276 71.937C195.276 74.9108 194.094 77.7627 191.992 79.8655C189.889 81.9683 187.037 83.1496 184.063 83.1496Z" fill="white"/>
</g>
<defs>
<clipPath id="clip0_206_192">
<rect width="134.551" height="134.551" fill="white" transform="translate(60.7246 60.7244)"/>
</clipPath>
</defs>
</svg>
