<svg width="256" height="256" viewBox="0 0 256 256" fill="none" xmlns="http://www.w3.org/2000/svg">
<g clip-path="url(#clip0_207_10)">
<path d="M28 128C28 72.7708 72.7708 28 128 28C183.229 28 228 72.7708 228 128C228 183.229 183.229 228 128 228C72.7708 228 28 183.229 28 128Z" fill="#31C5F0"/>
<path d="M38 128C38 78.2917 78.2917 38 128 38C177.708 38 218 78.2917 218 128C218 177.708 177.708 218 128 218C78.2917 218 38 177.708 38 128Z" fill="url(#paint0_radial_207_10)"/>
<path fill-rule="evenodd" clip-rule="evenodd" d="M78 85.975C78 85.45 79.1208 85.0583 79.775 85.0583C84.8708 84.7958 92.3542 84.6667 100.192 84.6667C122.15 84.6667 130.7 96.6875 130.7 112.108C130.7 132.233 116.104 140.858 98.2 140.858C96.5625 140.858 95.5042 140.817 94.5458 140.783C93.7171 140.749 92.8878 140.731 92.0583 140.729V171.158C92.0583 171.813 91.7958 172.075 91.1417 172.075H78.9167C78.2625 172.075 78 171.808 78 171.158V85.975ZM92.0583 128.054C93.8875 128.179 95.325 128.179 98.4625 128.179C107.737 128.179 116.454 124.917 116.454 112.371C116.454 102.308 110.221 97.2125 99.6375 97.2125C96.5 97.2125 93.4958 97.3375 92.0542 97.475V128.05L92.0583 128.054ZM151.862 124.392C151.862 121.779 153.954 118.642 160.225 118.642C165.325 118.642 170.517 119.95 174.042 122.042C174.825 122.304 175.217 121.908 175.217 121.258V110.408C175.217 109.888 175.088 109.233 174.433 108.842C171.821 107.667 167.021 106.621 160.225 106.621C146.375 106.621 138.404 115.113 138.404 125.308C138.404 134.454 143.108 139.942 154.346 145.3C162.317 149.483 164.146 151.967 164.146 154.842C164.146 158.371 161.533 160.983 155.262 160.983C150.033 160.983 144.271 159.546 139.304 156.275C138.783 155.887 138.387 156.15 138.387 156.933V168.563C138.387 169.217 138.521 169.608 139.042 169.871C142.442 171.829 148.333 173.267 155.262 173.267C168.329 173.267 178 166.475 178 153.796C178 145.304 174.083 139.554 161.667 133.542C153.3 129.229 151.862 127.267 151.862 124.392Z" fill="#31C5F0"/>
</g>
<defs>
<radialGradient id="paint0_radial_207_10" cx="0" cy="0" r="1" gradientUnits="userSpaceOnUse" gradientTransform="translate(109.762 97.9583) scale(117.353)">
<stop stop-color="#0E0E17" stop-opacity="0.85"/>
<stop offset="0.767" stop-color="#0E0E17"/>
</radialGradient>
<clipPath id="clip0_207_10">
<rect width="200" height="200" fill="white" transform="translate(28 28)"/>
</clipPath>
</defs>
</svg>
